<svg width="24" height="30" viewBox="0 0 24 30" fill="none" xmlns="http://www.w3.org/2000/svg">
<path d="M12 18C12.825 18 13.5312 17.7062 14.1187 17.1187C14.7062 16.5312 15 15.825 15 15C15 14.175 14.7062 13.4688 14.1187 12.8813C13.5312 12.2938 12.825 12 12 12C11.175 12 10.4688 12.2938 9.88125 12.8813C9.29375 13.4688 9 14.175 9 15C9 15.825 9.29375 16.5312 9.88125 17.1187C10.4688 17.7062 11.175 18 12 18ZM6 24H18V23.1375C18 22.5375 17.8375 21.9875 17.5125 21.4875C17.1875 20.9875 16.7375 20.6125 16.1625 20.3625C15.5125 20.0875 14.8438 19.875 14.1562 19.725C13.4688 19.575 12.75 19.5 12 19.5C11.25 19.5 10.5312 19.575 9.84375 19.725C9.15625 19.875 8.4875 20.0875 7.8375 20.3625C7.2625 20.6125 6.8125 20.9875 6.4875 21.4875C6.1625 21.9875 6 22.5375 6 23.1375V24ZM21 30H3C2.175 30 1.46875 29.7062 0.88125 29.1187C0.29375 28.5312 0 27.825 0 27V3C0 2.175 0.29375 1.46875 0.88125 0.88125C1.46875 0.29375 2.175 0 3 0H15L24 9V27C24 27.825 23.7062 28.5312 23.1187 29.1187C22.5312 29.7062 21.825 30 21 30ZM21 27V10.275L13.725 3H3V27H21ZM3 27V3V10.275V27Z" fill="#002444" fill-opacity="0.2"/>
</svg>
